<svg xmlns:dc="http://purl.org/dc/elements/1.1/" xmlns:cc="http://creativecommons.org/ns#" xmlns:rdf="http://www.w3.org/1999/02/22-rdf-syntax-ns#" xmlns:svg="http://www.w3.org/2000/svg" xmlns="http://www.w3.org/2000/svg" xmlns:sodipodi="http://sodipodi.sourceforge.net/DTD/sodipodi-0.dtd" xmlns:inkscape="http://www.inkscape.org/namespaces/inkscape" viewBox="0 0 32 40.00000125" version="1.1" x="0px" y="0px"><g transform="translate(0,-1020.3622)"><g transform="translate(1140.1297,17.55146)"><g><g transform="translate(-282.2455,-0.38488735)"><g transform="translate(-93.904403,-0.29562567)"><g transform="translate(423.1674,-46.439881)"><g transform="translate(-90.505962,-29.624286)"><g transform="translate(-144.27632,29.5498)"><g transform="translate(47.171924,-46.850913)"><g transform="translate(-0.464039,4.7117965e-8)"><g><g transform="matrix(0.8660254,-0.5,0.5,0.8660254,-892.30067,-226.03598)"><g transform="translate(-11.155229,3.0642311)"><path d="m -738.40014,1096.3476 c -0.21286,-0.044 -0.44849,0.068 -0.5477,0.2611 l -11.5,19.9186 c -0.13087,0.2267 -0.0437,0.5521 0.18301,0.683 l 15.58846,9 c 0.22672,0.1309 0.55209,0.044 0.68301,-0.183 l 11.5,-19.9186 c 0.13088,-0.2267 0.0437,-0.5521 -0.18301,-0.683 l -15.58846,-9 c -0.0398,-0.034 -0.0856,-0.061 -0.13531,-0.078 z m 2.96544,5.1762 c 0.53225,0.3073 0.79043,0.7951 0.95947,1.2756 0.50396,-0.093 1.07937,-0.099 1.61154,0.2088 0.57061,0.3294 1.01029,0.8088 1.20305,1.4162 0.1927,0.6076 0.10862,1.3119 -0.27238,1.9718 -0.44465,0.7702 -1.3162,1.0729 -2.26166,1.2923 -0.94542,0.2193 -2.03428,0.3528 -3.04116,0.5174 -0.22245,0.034 -0.45942,-0.1028 -0.54127,-0.3125 -0.36137,-0.9556 -0.79266,-1.9637 -1.07246,-2.8924 -0.27974,-0.9288 -0.45336,-1.8398 -0.0117,-2.6048 0.37785,-0.6545 0.94933,-1.083 1.57142,-1.2218 0.62205,-0.1386 1.28248,0.019 1.85511,0.3494 z m -6.47562,6.6536 c 0.018,0.01 0.0361,0.021 0.0541,0.031 0.018,0.01 0.0361,0.021 0.0541,0.031 0.0497,0.017 0.0956,0.044 0.13532,0.078 l 10.3923,6 c 0.22877,0.1321 0.32128,0.4578 0.18918,0.6866 -0.1321,0.2288 -0.46226,0.3147 -0.68918,0.1794 l -10.3923,-6 c -0.26372,-0.067 -0.44199,-0.3683 -0.37505,-0.6315 0.0671,-0.2635 0.36793,-0.4422 0.63148,-0.3751 z m -1.5,2.5981 c 0.018,0.01 0.0361,0.021 0.0541,0.031 0.018,0.01 0.0361,0.021 0.0541,0.031 0.0497,0.017 0.0956,0.044 0.13532,0.078 l 6.9282,4 c 0.22877,0.1321 0.32128,0.4578 0.18918,0.6866 -0.1321,0.2288 -0.46226,0.3147 -0.68918,0.1794 l -6.9282,-4 c -0.26372,-0.067 -0.44199,-0.3683 -0.37505,-0.6315 0.0671,-0.2636 0.36793,-0.4422 0.63148,-0.3751 z m -1.5,2.598 c 0.018,0.01 0.0361,0.021 0.0541,0.031 0.018,0.01 0.0361,0.021 0.0541,0.031 0.0497,0.017 0.0956,0.044 0.13532,0.078 l 5.19615,3 c 0.22877,0.132 0.32128,0.4577 0.18918,0.6865 -0.1321,0.2288 -0.46226,0.3148 -0.68918,0.1795 l -5.19615,-3 c -0.26372,-0.067 -0.44199,-0.3684 -0.37505,-0.6316 0.0671,-0.2635 0.36793,-0.4421 0.63148,-0.3751 z" style="color:#000000;text-indent:0;text-decoration-line:none;text-transform:none;direction:ltr;block-progression:tb;baseline-shift:baseline;enable-background:accumulate;" display="inline" overflow="visible" visibility="visible" fill="#000000" fill-opacity="1" stroke="none" marker="none"/></g></g></g></g></g></g></g></g></g></g></g></g></g><text x="0" y="47.000001" fill="#000000" font-size="5px" font-weight="bold" font-family="'Helvetica Neue', Helvetica, Arial-Unicode, Arial, Sans-serif">Created by Chameleon Design</text><text x="0" y="52.000001" fill="#000000" font-size="5px" font-weight="bold" font-family="'Helvetica Neue', Helvetica, Arial-Unicode, Arial, Sans-serif">from the Noun Project</text></svg>